IKResults2
version=1
nRows=10
nColumns=40
inDegrees=yes

Units are S.I. units (second, meters, Newtons, ...)
If the header above contains a line with 'inDegrees', this indicates whether rotational values are in degrees (yes) or radians (no).

endheader
time	pelvis_tilt	pelvis_list	pelvis_rotation	pelvis_tx	pelvis_ty	pelvis_tz	hip_flexion_r	hip_adduction_r	hip_rotation_r	knee_angle_r	knee_angle_r_beta	ankle_angle_r	subtalar_angle_r	mtp_angle_r	hip_flexion_l	hip_adduction_l	hip_rotation_l	knee_angle_l	knee_angle_l_beta	ankle_angle_l	subtalar_angle_l	mtp_angle_l	lumbar_extension	lumbar_bending	lumbar_rotation	arm_flex_r	arm_add_r	arm_rot_r	elbow_flex_r	pro_sup_r	wrist_flex_r	wrist_dev_r	arm_flex_l	arm_add_l	arm_rot_l	elbow_flex_l	pro_sup_l	wrist_flex_l	wrist_dev_l
      0.00000000	      8.75566409	    -12.06622528	    -50.39792984	      1.01094465	      0.86347559	      0.32701354	     -7.86294192	    -25.62000206	    -32.63603366	     57.18877437	      0.99813241	     21.80470637	    -23.56483360	      0.12438248	     24.09806220	    -35.26314188	    -26.80787705	     56.15473250	      0.98008497	      4.52077327	     -0.92822447	      0.00000000	    -27.70017355	     -0.83439358	      4.25269470	    -14.17710785	    -21.68720565	    -13.14758893	    120.42608626	     76.29942089	      0.00000000	      0.00000000	     -1.52543142	    -15.33365910	    -55.12350165	     95.70055167	     67.07951910	      0.00000000	      0.00000000
      0.00400000	      8.76789554	    -12.04986970	    -50.44425539	      1.01085619	      0.86347386	      0.32703629	     -7.81468635	    -25.64712166	    -32.56410367	     57.20662119	      0.99844389	     21.83713378	    -23.55288462	      0.18059201	     24.04278582	    -35.27778775	    -26.90900568	     56.14361681	      0.97989097	      4.57968608	     -0.80199993	      0.00000000	    -27.69923343	     -0.87768188	      4.23712641	    -14.13566828	    -21.69617538	    -13.08395132	    120.41681657	     76.40952557	      0.00000000	      0.00000000	     -1.55736902	    -15.32394355	    -55.20034063	     95.72768237	     67.08877606	      0.00000000	      0.00000000
      0.00800000	      8.78700082	    -12.08177912	    -50.38685892	      1.01093880	      0.86353809	      0.32701333	     -7.92214273	    -25.63178523	    -32.67222900	     57.15355521	      0.99751772	     21.79051386	    -23.55892698	      0.23130957	     24.03858029	    -35.26350186	    -26.85434380	     56.14516042	      0.97991791	      4.61218891	     -0.76171877	      0.00000000	    -27.73324211	     -0.84511756	      4.15465223	    -14.11224303	    -21.70078366	    -13.02606563	    120.37973719	     76.16215037	      0.00000000	      0.00000000	     -1.60683093	    -15.32153245	    -55.25967438	     95.71523416	     67.16679310	      0.00000000	      0.00000000
      0.01200000	      8.78808887	    -12.10356288	    -50.40176217	      1.01089322	      0.86358899	      0.32703981	     -7.92694436	    -25.60851639	    -32.63874130	     57.15294979	      0.99750715	     21.80273409	    -23.55763854	      0.22962073	     24.00071806	    -35.29097644	    -26.87820414	     56.14020679	      0.97983145	      4.63310440	     -0.72266232	      0.00000000	    -27.75346676	     -0.84663256	      4.16990937	    -14.12423087	    -21.69196039	    -13.01223039	    120.39456371	     75.96309670	      0.00000000	      0.00000000	     -1.60627155	    -15.31691759	    -55.27379768	     95.71176721	     67.20036575	      0.00000000	      0.00000000
      0.01600000	      8.80047642	    -12.07686364	    -50.42896891	      1.01088309	      0.86358671	      0.32700746	     -7.89786802	    -25.65636063	    -32.61637014	     57.15970038	      0.99762497	     21.79484853	    -23.57976592	      0.23778346	     23.96676815	    -35.26680658	    -26.94862932	     56.11070769	      0.97931659	      4.63522047	     -0.73297754	      0.00000000	    -27.74220807	     -0.88281787	      4.17238617	    -14.14674102	    -21.68510922	    -13.04950237	    120.41063830	     76.12189449	      0.00000000	      0.00000000	     -1.62903412	    -15.30998982	    -55.27710076	     95.72985732	     67.13634113	      0.00000000	      0.00000000
      0.02000000	      8.78007919	    -12.05670636	    -50.48024151	      1.01077011	      0.86350679	      0.32697963	     -7.81589955	    -25.66432651	    -32.55912646	     57.19823106	      0.99829746	     21.84190032	    -23.52864261	      0.21814657	     24.00020382	    -35.27638801	    -26.95603666	     56.12599009	      0.97958332	      4.55230886	     -0.87137694	      0.00000000	    -27.71960201	     -0.89791924	      4.25594300	    -14.20622499	    -21.67824642	    -13.11386677	    120.45885725	     76.20907428	      0.00000000	      0.00000000	     -1.59733821	    -15.31093824	    -55.22736955	     95.66942669	     67.16158476	      0.00000000	      0.00000000
      0.02400000	      8.50007625	    -11.81331958	    -50.49199574	      1.01065716	      0.86272485	      0.32670723	     -7.30159573	    -25.61041738	    -32.47544859	     57.36645078	      1.00123345	     21.99209229	    -23.86531773	      0.29607512	     24.63699049	    -35.26073658	    -26.60986936	     56.26068806	      0.98193425	      4.46691683	     -1.38450106	      0.00000000	    -27.32967219	     -0.84804819	      4.33265055	    -14.30685099	    -21.59453389	    -13.27924059	    120.39897827	     74.45849248	      0.00000000	      0.00000000	     -1.59728407	    -15.31387835	    -55.04750909	     95.73227849	     67.18931067	      0.00000000	      0.00000000
      0.02800000	      8.80484668	    -12.21107005	    -50.34603403	      1.01090783	      0.86377448	      0.32688128	     -8.10536263	    -25.54356673	    -32.76070097	     57.07103762	      0.99607751	     21.78460760	    -23.49506192	      0.33117301	     23.94553537	    -35.31673997	    -26.80271666	     56.11844427	      0.97945162	      4.59675589	     -0.74604869	      0.00000000	    -27.87051386	     -0.76570703	      4.14017064	    -14.17850619	    -21.67877376	    -13.06379401	    120.43128527	     75.41625742	      0.00000000	      0.00000000	     -1.63119647	    -15.29435384	    -55.26470254	     95.70249900	     67.13158683	      0.00000000	      0.00000000
      0.03200000	      8.81739111	    -12.01440505	    -50.47587695	      1.01073873	      0.86349228	      0.32688335	     -7.79931235	    -25.74890507	    -32.56500902	     57.21834093	      0.99864844	     21.90028844	    -23.43857062	      0.27762056	     23.97603767	    -35.21399976	    -27.00332401	     56.10693112	      0.97925068	      4.62145777	     -0.79599740	      0.00000000	    -27.71898070	     -0.95913698	      4.14068503	    -14.14661375	    -21.62724596	    -13.07935097	    120.37727974	     76.41851648	      0.00000000	      0.00000000	     -1.70402775	    -15.29166846	    -55.34589752	     95.71704378	     67.14589559	      0.00000000	      0.00000000
      0.03600000	      8.77374753	    -12.11698170	    -50.44334326	      1.01073089	      0.86360618	      0.32682707	     -7.90591804	    -25.61160680	    -32.63085979	     57.14409464	      0.99735260	     21.80443848	    -23.50708231	      0.32519914	     23.99004321	    -35.29826625	    -26.89173095	     56.10415315	      0.97920220	      4.53645570	     -0.88900001	      0.00000000	    -27.77608574	     -0.84176448	      4.24312807	    -14.26641245	    -21.61644159	    -13.17428694	    120.48892352	     75.43249001	      0.00000000	      0.00000000	     -1.63225608	    -15.29920995	    -55.19169986	     95.66640633	     67.11105034	      0.00000000	      0.00000000
